PathFileType	4	(X/Y/Z)	Patient4_TMGait_0pt3_01_right_19.trc.trc
DataRate	CameraRate	NumFrames	NumMarkers	Units	OrigDataRate	OrigDataStartFrame	OrigNumFrames
51.851851851852	51.851851851852	4	33	mm	51.851851851852	124	       141
Frame#	Time	Sacral			L.Shoulder			Chest			R.Shoulder			Neck			R.ASIS			L.ASIS			R.Thigh.Superior			R.Thigh.Lateral			R.Thigh.Inferior			R.Patella			L.Thigh.Superior			L.Thigh.Lateral			L.Thigh.Inferior			L.Patella			L.Shank.Superior			L.Shank.Lateral			L.Shank.Inferior			R.Shank.Superior			R.Shank.Lateral			R.Shank.Inferior			R.Heel			R.Midfoot.Superior			R.Midfoot.Lateral			R.Toe			L.Heel			L.Midfoot.Lateral			L.Midfoot.Superior			L.Toe			L.Elbow			L.Wrist			R.Elbow			R.Wrist			
		X1	Y1	Z1	X2	Y2	Z2	X3	Y3	Z3	X4	Y4	Z4	X5	Y5	Z5	X6	Y6	Z6	X7	Y7	Z7	X8	Y8	Z8	X9	Y9	Z9	X10	Y10	Z10	X11	Y11	Z11	X12	Y12	Z12	X13	Y13	Z13	X14	Y14	Z14	X15	Y15	Z15	X16	Y16	Z16	X17	Y17	Z17	X18	Y18	Z18	X19	Y19	Z19	X20	Y20	Z20	X21	Y21	Z21	X22	Y22	Z22	X23	Y23	Z23	X24	Y24	Z24	X25	Y25	Z25	X26	Y26	Z26	X27	Y27	Z27	X28	Y28	Z28	X29	Y29	Z29	X30	Y30	Z30	X31	Y31	Z31	X32	Y32	Z32	X33	Y33	Z33	

124	36.902142857143	729.489383581933	995.975616618935	454.690622764190	957.928609079344	1430.713484269656	333.377179810816	1010.732487147800	1355.708551088562	513.327412685824	883.682038137862	1426.938916130571	660.200540205994	900.865512428879	1487.312477911729	485.895876132847	933.241928376602	935.551436113328	618.359205583338	972.092517559047	953.899190369136	345.983451262951	1008.016328696745	755.201950443410	595.225837316880	947.242700029284	633.447320023110	653.173208202428	1041.833678241992	595.372007739655	582.076616000658	1064.748927216829	508.848908708018	597.188545565418	974.010408878645	723.885459946466	378.192224178662	868.151915707089	622.382203059056	306.917700406866	922.063137508445	533.834196884501	381.762440236856	906.355790133443	466.056139883820	391.982280322945	869.734354631993	399.250880421764	381.890245334953	767.506209683559	298.404223502908	325.346880905042	790.574034088346	183.487092439561	403.743118850644	1041.593408755859	418.105291100196	604.304579312587	973.787167900160	309.197895911048	662.788163020498	1036.240914200372	217.680812855975	612.151208194184	926.127523350343	42.017235195210	576.436715607104	1089.971298132811	105.271322925558	624.947044485718	1005.656047961443	36.183295185549	654.735985389873	1210.465902795181	63.155485860109	659.167870029277	642.118373773338	38.080566898663	440.303962195734	718.362639337006	35.156546635046	362.192642217574	802.320339656339	94.618049431211	392.344110643918	930.757302556447	40.118352144531	366.055157601928	1085.379417510270	1126.475421198493	183.255335395756	1337.436374412681	1094.550122400767	236.269930009342	714.364957134619	1114.542453526044	721.004728945155	692.700696935861	853.061485274724	727.301527802426	
125	36.921428571429	731.553446458158	995.084461195639	458.947353410995	959.160816927914	1429.953755570160	338.237284439197	1012.175326614810	1354.956475439436	518.199761331292	884.994108867281	1426.127448602609	665.090878948057	901.996174840808	1486.459969398484	490.901506394547	935.401239381766	934.560938834169	622.492112306524	974.212940471134	953.112437687976	350.187968151647	1010.046931120558	753.529136192457	598.545781667847	947.806982006980	631.734314217747	655.251854233154	1042.537478359004	593.674688256006	584.352060446975	1064.100214963119	506.718981865794	598.412798238320	974.574424692282	722.600272841416	381.163397490519	867.311636642116	622.249074268693	309.642389584479	920.594135666643	532.820867454084	383.854906940070	904.316805556173	464.899003164450	393.698627460029	866.899480762083	398.621226435423	383.372435908055	763.367703874697	299.128976656639	326.443119064865	785.677614456648	183.425593816568	404.037526411925	1040.751417400403	415.842281974567	605.255590645364	972.649847939136	307.240695461616	663.614856306100	1033.704460289082	215.606061877638	611.927965429118	921.387811269702	42.017898037052	576.135376818140	1086.215391757775	103.411515618458	624.278482426308	1000.683973383486	36.100202431357	654.670676277505	1205.989012421697	59.636126311265	658.736767262611	636.287034882863	38.521179190772	440.156128924123	712.609064081390	35.248076753245	362.156072609875	796.686113875473	94.634642569914	392.243487470632	925.033671339464	39.923648404163	365.996877799358	1088.181574778395	1126.532540795743	188.145921492848	1340.912746329903	1102.497901027782	241.321658327534	717.723667832040	1112.800367176774	726.056415905639	699.338634075371	851.015048827493	734.032088747286	
126	36.940714285714	733.696245114292	994.479417242258	463.579178458699	960.429937038460	1429.432440419459	343.234975858769	1013.806006901231	1354.432614820633	523.173466136961	886.613956472394	1425.542980485298	670.179145626552	903.268620624043	1485.848649161675	496.078356915461	937.827314710295	933.854969862732	626.843992721712	976.286550619479	952.553312929636	354.568667136342	1012.458876340377	752.300495546804	601.731274439051	949.085962498015	630.476727749416	657.432162545904	1043.742528996699	592.368711030600	586.504907829365	1064.063949545753	504.818059852316	599.656664051975	975.477267948197	721.580868075377	384.270032244370	867.006725116122	622.177547896258	312.684687283873	920.047741509978	531.937691765241	386.149336919558	903.364404202624	463.688922117333	395.533007107421	864.843073766537	398.013528863904	385.010958485537	759.735330506191	300.180480759148	327.752669886563	781.145913188705	183.546987518299	404.344181993175	1040.175525958212	413.827738600556	606.202439320529	971.470084005606	305.723966840495	664.492042110000	1030.703397125135	213.765120551684	611.655696485743	915.614639703086	42.267319882933	575.773468303139	1081.492221510754	101.764251153419	623.621375800160	994.678058182776	36.196033678216	654.541325060537	1200.545672490249	56.212796755852	658.331429013762	630.537109723301	39.437333688331	439.960716717540	706.925616233643	35.560835856543	362.104453774089	791.247136952920	94.723614850264	392.070891766819	919.349776261948	39.676809497142	365.913364043870	1090.540290661754	1126.545343020423	193.190824413058	1343.739119862725	1109.414045024348	246.235653802521	722.008906650794	1110.852320500764	731.588118779284	707.101749844754	848.846453909028	741.462189989825	
127	36.960000000000	735.865578557380	994.222062071057	468.575004847973	961.715105459757	1429.199708359203	348.326848221877	1015.604756169196	1354.189620910822	528.198651831950	888.546879467481	1425.253580262815	675.420908108829	904.679134403710	1485.538781043327	501.371219845511	940.461716255636	933.467260123818	631.394847264779	978.247277260568	952.284993504143	359.101830799521	1015.071592256475	751.480427794321	604.874659733757	950.829142136632	629.666230142731	659.811402572816	1045.201111331778	591.415397013358	588.653835415831	1064.390753070579	503.190533265744	601.026372896979	976.659000865955	720.903447197445	387.514009110262	867.228836721972	622.217050192303	315.997492777396	920.435521094895	531.241170546757	388.593351552681	903.513103190669	462.476952161657	397.409653717110	863.597583444731	397.488424511910	386.744552979206	756.650722741823	301.624612666155	329.255149788631	777.039142159840	183.934003342367	404.646254397610	1039.723014526265	412.116476186517	607.239788818451	970.231444618862	304.603026222335	665.496035437458	1027.400025306277	212.205105466236	611.444336964125	909.283417478198	42.641187498872	575.436889299833	1076.167932189063	100.389725982001	623.043030129703	988.146699470575	36.384629813163	654.401428974960	1194.582871256379	53.124016891035	657.981202990114	624.914726880147	40.993669321583	439.727097354803	701.334249860723	36.199357808837	362.038533496591	786.063918999790	94.922818988216	391.816316793142	913.698946276799	39.383215976760	365.809887838364	1092.440396472340	1126.576500802202	198.337295636707	1345.961051604705	1115.265884580269	251.000183007728	727.024772556007	1108.904228318247	737.557707516005	715.724664256859	846.781236397239	749.476461342174	
